<?xml version="1.0" standalone="no"?>
<!DOCTYPE svg PUBLIC "-//W3C//DTD SVG 20010904//EN"
 "http://www.w3.org/TR/2001/REC-SVG-20010904/DTD/svg10.dtd">
<svg version="1.0" xmlns="http://www.w3.org/2000/svg"
 width="620.000000pt" height="620.000000pt" viewBox="0 0 620.000000 620.000000"
 preserveAspectRatio="xMidYMid meet">
<metadata>
Created by potrace 1.14, written by Peter Selinger 2001-2017
</metadata>
<g transform="translate(0.000000,620.000000) scale(0.100000,-0.100000)"
fill="#000000" stroke="none">
<path d="M467 6004 c-182 -44 -335 -183 -395 -359 l-27 -80 -3 -2478 c-2
-2724 -6 -2553 58 -2683 43 -88 142 -191 227 -236 137 -74 -98 -68 2763 -68
2819 0 2621 -4 2748 58 81 39 200 159 241 242 65 134 61 -40 61 2660 0 2704 4
2529 -62 2660 -45 88 -153 195 -238 237 -139 68 82 63 -2750 62 -2162 -1
-2574 -3 -2623 -15z m5178 -335 c53 -15 129 -91 144 -144 8 -29 11 -725 11
-2475 0 -2335 -1 -2437 -19 -2475 -27 -60 -67 -102 -114 -120 -38 -14 -279
-15 -2594 -13 l-2551 3 -44 30 c-23 17 -54 51 -68 75 l-25 45 -3 2430 c-2
1688 1 2445 8 2480 17 81 72 142 146 165 45 13 5060 12 5109 -1z"/>
<path d="M1600 5045 l0 -385 485 0 484 0 4 -1372 c3 -1342 4 -1376 24 -1493
54 -308 142 -509 300 -684 163 -180 399 -298 663 -331 192 -23 498 -8 691 35
182 41 439 119 439 133 0 4 -28 102 -61 217 -34 116 -63 219 -66 230 -3 11
-13 47 -23 80 -10 33 -26 88 -35 122 -10 35 -19 63 -19 63 -1 0 -41 -14 -91
-31 -153 -51 -259 -71 -380 -72 -264 -2 -414 100 -488 331 l-22 67 -3 1738 -2
1737 -950 0 -950 0 0 -385z"/>
</g>
</svg>
